HIERARCHY
ROOT hip
{
	OFFSET 0.000000 0.000000 0.000000
	CHANNELS 6 Xposition Yposition Zposition Xrotation Zrotation Yrotation 
	JOINT abdomen
	{
		OFFSET 0.000000 3.422050 0.000000
		CHANNELS 3 Xrotation Zrotation Yrotation 
		JOINT chest
		{
			OFFSET 0.000000 8.486693 -0.684411
			CHANNELS 3 Xrotation Zrotation Yrotation 
			JOINT neck
			{
				OFFSET 0.000000 10.266162 -0.273764
				CHANNELS 3 Xrotation Zrotation Yrotation 
				JOINT head
				{
					OFFSET 0.000000 3.148285 0.000000
					CHANNELS 3 Xrotation Zrotation Yrotation 
					End Site
					{
						OFFSET 0.000000 3.148289 0.000000
					}
				}
			}
			JOINT lCollar
			{
				OFFSET 3.422053 6.707223 -0.821293
				CHANNELS 3 Yrotation Zrotation Xrotation 
				JOINT lShldr
				{
					OFFSET 3.285171 0.000000 0.000000
					CHANNELS 3 Zrotation Yrotation Xrotation 
					JOINT lForeArm
					{
						OFFSET 10.129278 0.000000 0.000000
						CHANNELS 3 Yrotation Zrotation Xrotation 
						JOINT lHand
						{
							OFFSET 8.486692 0.000000 0.000000
							CHANNELS 3 Zrotation Yrotation Xrotation 
							End Site
							{
								OFFSET 4.106464 0.000000 0.000000
							}
						}
					}
				}
			}
			JOINT rCollar
			{
				OFFSET -3.558935 6.707223 -0.821293
				CHANNELS 3 Yrotation Zrotation Xrotation 
				JOINT rShldr
				{
					OFFSET -3.148289 0.000000 0.000000
					CHANNELS 3 Zrotation Yrotation Xrotation 
					JOINT rForeArm
					{
						OFFSET -10.266159 0.000000 0.000000
						CHANNELS 3 Yrotation Zrotation Xrotation 
						JOINT rHand
						{
							OFFSET -8.349810 0.000000 0.000000
							CHANNELS 3 Zrotation Yrotation Xrotation 
							End Site
							{
								OFFSET -4.106464 0.000000 0.000000
							}
						}
					}
				}
			}
		}
	}
	JOINT lThigh
	{
		OFFSET 5.338403 -1.642589 1.368821
		CHANNELS 3 Xrotation Zrotation Yrotation 
		JOINT lShin
		{
			OFFSET -2.053232 -20.121670 0.000000
			CHANNELS 3 Xrotation Zrotation Yrotation 
			JOINT lFoot
			{
				OFFSET 0.000000 -19.300380 -1.231939
				CHANNELS 3 Xrotation Yrotation Zrotation 
				End Site
				{
					OFFSET 0.000000 -2.463878 4.653993
				}
			}
		}
	}
	JOINT rThigh
	{
		OFFSET -5.338403 -1.642589 1.368821
		CHANNELS 3 Xrotation Zrotation Yrotation 
		JOINT rShin
		{
			OFFSET 2.053232 -20.121670 0.000000
			CHANNELS 3 Xrotation Zrotation Yrotation 
			JOINT rFoot
			{
				OFFSET 0.000000 -19.300380 -1.231939
				CHANNELS 3 Xrotation Yrotation Zrotation 
				End Site
				{
					OFFSET 0.000000 -2.463878 4.653993
				}
			}
		}
	}
}
MOTION
Frames: 6
Frame Time: 0.033333
0.000000 43.528500 0.000000 0.000000 0.000000 0.000000 0.000000 0.000000 0.000000 0.000000 0.000000 0.000000 0.000000 0.000000 0.000000 0.000000 0.000000 0.000000 0.000000 0.000000 0.000000 0.000000 0.000000 0.000000 0.000000 0.000000 0.000000 0.000000 0.000000 0.000000 0.000000 0.000000 0.000000 0.000000 0.000000 0.000000 0.000000 0.000000 0.000000 0.000000 0.000000 0.000000 0.000000 0.000000 0.000000 0.000000 0.000000 0.000000 0.000000 0.000000 0.000000 0.000000 0.000000 0.000000 0.000000 0.000000 0.000000 0.000000 0.000000 0.000000 
0.000000 1.995800 -32.004837 -63.002144 -0.003099 43.999817 48.996311 0.000000 0.000000 15.998816 -0.000380 18.999685 0.000000 0.000000 0.000000 -6.000639 -0.002301 29.997480 0.000000 0.000000 0.000000 -15.000610 -19.002684 23.997486 -69.003609 -0.000814 -20.001902 42.998108 -20.001629 -60.001587 0.000000 0.000000 0.000000 84.995224 7.999326 6.996809 74.999603 0.000000 0.000000 37.997963 0.000000 0.000000 -57.004864 30.997993 46.999172 71.996742 0.000001 -0.000001 14.998732 -0.002847 -0.999614 -12.001287 -29.003447 -23.999685 8.998567 0.000000 0.000000 20.996786 0.000000 0.000000 
0.000000 1.995800 -32.004837 -63.002144 -0.003099 43.999817 48.996311 0.000000 0.000000 15.998818 -0.000380 18.999687 0.000000 0.000000 0.000000 -6.429029 -0.002156 29.997444 0.000000 0.000000 0.000000 -15.000610 -19.002684 23.997486 -69.003609 -0.000814 -20.001902 42.998108 -20.001633 -60.001587 0.000000 0.000000 0.000000 84.995224 7.999326 6.996809 76.492767 0.000000 0.000000 37.997963 0.000000 0.000000 -57.004868 30.997997 46.999176 71.996857 -0.000061 -0.357145 14.998732 -0.002847 -0.999614 -12.001287 -29.003447 -23.999687 8.998449 -0.000225 -0.428650 20.996786 0.000000 0.000000 
0.000000 1.995800 -32.004837 -63.002144 -0.003101 43.999813 48.996311 0.000000 0.000000 15.998816 -0.000380 18.999683 0.000000 0.000000 0.000000 -6.857488 -0.002012 29.997395 0.000000 0.000000 0.000000 -15.000610 -19.002684 23.997486 -69.003609 -0.000814 -20.001902 42.998108 -20.001627 -60.001579 0.000000 0.000000 0.000000 84.995224 7.999326 6.996809 77.988991 0.000000 0.000000 37.997963 0.000000 0.000000 -57.004864 30.997993 46.999165 71.996956 -0.000122 -0.714330 14.998732 -0.002847 -0.999614 -12.001288 -29.003447 -23.999683 8.998331 -0.000451 -0.857372 20.996786 0.000000 0.000000 
0.000000 1.995800 -32.004837 -63.002144 -0.003099 43.999817 48.996311 0.000000 0.000000 15.998816 -0.000380 18.999685 0.000000 0.000000 0.000000 -7.286007 -0.001867 29.997351 0.000000 0.000000 0.000000 -15.000610 -19.002684 23.997486 -69.003609 -0.000814 -20.001902 42.998108 -20.001629 -60.001587 0.000000 0.000000 0.000000 84.995224 7.999326 6.996809 79.487808 0.000000 0.000000 37.997963 0.000000 0.000000 -57.004864 30.997993 46.999172 71.997063 -0.000183 -1.071549 14.998732 -0.002847 -0.999614 -12.001287 -29.003443 -23.999685 8.998218 -0.000678 -1.286155 20.996786 0.000000 0.000000 
0.000000 1.995800 -32.004837 -63.002144 -0.003098 43.999821 48.996319 0.000000 0.000000 15.998818 -0.000380 18.999685 0.000000 0.000000 0.000000 -7.714575 -0.001724 29.997299 0.000000 0.000000 0.000000 -15.000610 -19.002684 23.997490 -69.003609 -0.000814 -20.001902 42.998108 -20.001629 -60.001587 0.000000 0.000000 0.000000 84.995224 7.999326 6.996809 80.988663 0.000000 0.000000 37.997963 0.000000 0.000000 -57.004868 30.997993 46.999172 71.997162 -0.000243 -1.428797 14.998732 -0.002847 -0.999614 -12.001288 -29.003447 -23.999685 8.998105 -0.000906 -1.714985 20.996786 0.000000 0.000000 
